<svg xml:space="preserve" width="75.889" height="62.656" xmlns="http://www.w3.org/2000/svg"><path d="M67.564 14.073a2.49 2.49 0 0 0 1.51-.51l2.037-1.546a2.5 2.5 0 1 0-3.024-3.982L66.05 9.582a2.5 2.5 0 0 0 1.514 4.49zM41.832 9.838a2.498 2.498 0 0 0 3.503.479 2.5 2.5 0 0 0 .479-3.503l-1.546-2.037A2.5 2.5 0 1 0 40.286 7.8zM73.728 21.985l-2.534-.347a2.499 2.499 0 1 0-.678 4.953l2.534.347a2.5 2.5 0 0 0 .678-4.953zM56.026 7.51a2.5 2.5 0 0 0 2.816-2.138l.347-2.534A2.499 2.499 0 0 0 57.051.023a2.502 2.502 0 0 0-2.816 2.138l-.347 2.534a2.5 2.5 0 0 0 2.138 2.815z" style="fill:#fc0"/>
    <path d="M60.846 32.143c2.9-1.911 4.981-5.008 5.478-8.647.924-6.757-3.821-13.006-10.579-13.931a12.402 12.402 0 0 0-1.688-.115c-6.087 0-11.302 4.51-12.211 10.52a15.931 15.931 0 0 0-12.439-5.971c-8.795 0-15.951 7.155-15.951 15.95 0 .563.031 1.128.092 1.69a11.532 11.532 0 0 0-6.224 4.419 2.499 2.499 0 1 0 4.086 2.88 6.505 6.505 0 0 1 5.144-2.744 2.5 2.5 0 0 0 2.344-3.195 10.998 10.998 0 0 1-.441-3.051c0-6.038 4.913-10.951 10.951-10.951 4.036 0 7.732 2.21 9.648 5.77a2.503 2.503 0 0 0 3.932.62 6.81 6.81 0 0 1 4.729-1.906 6.848 6.848 0 0 1 6.841 6.84c0 .836-.157 1.666-.467 2.466a2.501 2.501 0 0 0 2.301 3.404c3.521.043 6.387 2.942 6.387 6.462a6.475 6.475 0 0 1-6.467 6.467H41.737a2.5 2.5 0 1 0 0 5h14.572c6.323 0 11.467-5.144 11.467-11.467 0-4.684-2.864-8.741-6.93-10.51zm-13.13-13.661c-.072 0-.142.013-.214.014 1.228-2.413 3.732-4.047 6.555-4.047.335 0 .675.022 1.01.068 4.025.552 6.853 4.274 6.302 8.3a7.334 7.334 0 0 1-2.254 4.345c-1.388-4.997-5.966-8.68-11.399-8.68z"
          style="fill:#000"/>
    <path d="M44.237 40.826a6.835 6.835 0 0 0-6.828-6.827 2.5 2.5 0 1 0 0 5 1.83 1.83 0 0 1 1.828 1.827 1.83 1.83 0 0 1-1.828 1.828H2.5a2.5 2.5 0 1 0 0 5h34.909a6.836 6.836 0 0 0 6.828-6.828zM29.173 49H12.144a2.5 2.5 0 1 0 0 5h17.029a1.83 1.83 0 0 1 1.828 1.829 1.83 1.83 0 0 1-1.828 1.827 2.5 2.5 0 1 0 0 5 6.835 6.835 0 0 0 6.828-6.827A6.836 6.836 0 0 0 29.173 49z"
          style="fill:#00f"/></svg>